<svg fill="#000000" xmlns="http://www.w3.org/2000/svg" xml:space="preserve" version="1.1" viewBox="0 0 325 264" x="0" y="0" fill-rule="evenodd" clip-rule="evenodd" shape-rendering="geometricPrecision" text-rendering="geometricPrecision" image-rendering="optimizeQuality"><path class="fil0" fill="#EC7210" d="M13 0l251 0 0 39 -25 21 0 -35 -214 0 0 214 214 0 0 -119 25 -32 0 176c-88,0 -176,0 -264,0l0 -264 13 0zm242 55c-36,30 -64,58 -96,97l-49 -70c-34,-3 -55,8 -62,40l112 88 165 -209c-24,17 -48,35 -70,54z"></path></svg>