<svg width="837" height="207" viewBox="0 0 837 207" fill="none" xmlns="http://www.w3.org/2000/svg">
<path d="M31 200C23.4 200 18 198.533 14.8 195.6C11.7333 192.533 10.2 188.067 10.2 182.2C10.2 180.6 10.2667 177.933 10.4 174.2C10.6667 170.333 11 165.8 11.4 160.6C11.8 155.4 12.2 149.733 12.6 143.6C13.1333 137.333 13.6667 131 14.2 124.6C15.2667 111.133 16 100.2 16.4 91.8C16.9333 83.4 17.3333 76.8 17.6 72C18 66 18.4 62.2 18.8 60.6C19.2 58.8667 20.0667 58 21.4 58C25.5333 58 29.7333 57.9333 34 57.8C38.4 57.5333 42.6 57.2667 46.6 57C50.6 56.7333 54.3333 56.5333 57.8 56.4C61.4 56.1333 64.6 56 67.4 56C75.9333 56 83.2667 57.0667 89.4 59.2C95.5333 61.3333 100.467 64.3333 104.2 68.2C108.067 72.0667 110.867 76.7333 112.6 82.2C114.467 87.6667 115.4 93.8 115.4 100.6C115.4 111 113.333 120.267 109.2 128.4C105.067 136.533 98.4667 142.733 89.4 147L106.2 171C109.267 175.533 111.6 179.067 113.2 181.6C114.8 184 115.6 185.8 115.6 187C115.6 187.933 115 189.267 113.8 191C112.733 192.6 111.067 194.267 108.8 196C106.667 197.6 104 199 100.8 200.2C97.7333 201.4 94.2667 202 90.4 202C86.1333 202 82.4 200.6 79.2 197.8C76.1333 195 73.3333 191.333 70.8 186.8C68.4 182.133 66.2667 176.8 64.4 170.8C62.6667 164.8 61 158.533 59.4 152C54.6 151.733 50.6667 151.267 47.6 150.6C47.2 156.467 46.8 162.067 46.4 167.4C46 172.733 45.6667 177.533 45.4 181.8C45.1333 185.933 44.8667 189.4 44.6 192.2C44.3333 194.867 44.2 196.467 44.2 197C44.0667 198.067 43.8 198.867 43.4 199.4C43 199.8 42.2 200 41 200H31ZM63.4 86C61.8 86 60 86.1333 58 86.4C56 86.5333 53.8667 86.7333 51.6 87C51.3333 91.6667 51 97.2667 50.6 103.8C50.3333 110.2 49.9333 117.067 49.4 124.4C54.0667 125.467 58.1333 126 61.6 126C65.7333 126 69.0667 125.2 71.6 123.6C74.2667 122 76.3333 120.067 77.8 117.8C79.2667 115.4 80.2 112.867 80.6 110.2C81.1333 107.533 81.4 105.133 81.4 103C81.4 97.5333 80.0667 93.3333 77.4 90.4C74.7333 87.4667 70.0667 86 63.4 86ZM180.47 202C174.604 202 168.737 201.267 162.87 199.8C157.137 198.333 151.937 195.8 147.27 192.2C142.737 188.6 139.004 183.8 136.07 177.8C133.137 171.8 131.67 164.267 131.67 155.2C131.67 151.867 131.937 147.867 132.47 143.2C133.004 138.533 134.004 133.733 135.47 128.8C137.07 123.867 139.204 119 141.87 114.2C144.67 109.267 148.27 104.867 152.67 101C157.07 97.1333 162.404 94 168.67 91.6C174.937 89.2 182.404 88 191.07 88C198.004 88 203.87 88.8 208.67 90.4C213.47 92 217.337 94.2 220.27 97C223.204 99.6667 225.337 102.8 226.67 106.4C228.004 110 228.67 113.867 228.67 118C228.67 124.133 227.404 129.333 224.87 133.6C222.47 137.867 219.27 141.467 215.27 144.4C211.404 147.2 207.07 149.4 202.27 151C197.47 152.6 192.737 153.867 188.07 154.8C183.404 155.6 179.07 156.133 175.07 156.4C171.204 156.533 168.204 156.6 166.07 156.6C166.07 159.133 166.404 161.667 167.07 164.2C167.87 166.6 169.004 168.733 170.47 170.6C171.937 172.467 173.87 174 176.27 175.2C178.67 176.4 181.604 177 185.07 177C188.537 177 191.204 176.467 193.07 175.4C195.07 174.2 196.67 172.933 197.87 171.6C199.07 170.133 200.07 168.867 200.87 167.8C201.804 166.6 203.004 166 204.47 166C205.137 166 206.27 166.2 207.87 166.6C209.604 166.867 211.337 167.533 213.07 168.6C214.804 169.667 216.337 171.133 217.67 173C219.004 174.867 219.67 177.267 219.67 180.2C219.67 184.067 218.47 187.4 216.07 190.2C213.67 193 210.537 195.267 206.67 197C202.937 198.733 198.737 200 194.07 200.8C189.404 201.6 184.87 202 180.47 202ZM184.27 114.6C181.337 114.6 178.804 115.467 176.67 117.2C174.67 118.8 172.937 120.867 171.47 123.4C170.137 125.933 169.07 128.733 168.27 131.8C167.604 134.867 167.07 137.8 166.67 140.6C174.937 140.467 181.604 139.067 186.67 136.4C191.87 133.733 194.47 129.933 194.47 125C194.47 122.333 193.604 119.933 191.87 117.8C190.27 115.667 187.737 114.6 184.27 114.6ZM301.716 56C314.249 56 323.516 58.7333 329.516 64.2C335.649 69.6667 338.716 76.8 338.716 85.6C338.716 93.0667 336.649 98.8 332.516 102.8C328.382 106.667 322.449 108.6 314.716 108.6C312.316 108.6 310.782 108.4 310.116 108C309.449 107.467 309.116 106.467 309.116 105C309.116 103.667 308.982 101.933 308.716 99.8C308.582 97.6667 308.116 95.6 307.316 93.6C306.516 91.6 305.249 89.9333 303.516 88.6C301.782 87.1333 299.382 86.4 296.316 86.4C292.049 86.4 288.249 87.7333 284.916 90.4C281.582 92.9333 279.916 96.2667 279.916 100.4C279.916 104 281.249 106.933 283.916 109.2C286.716 111.467 290.182 113.6 294.316 115.6C298.449 117.467 302.916 119.4 307.716 121.4C312.649 123.4 317.182 126.067 321.316 129.4C325.449 132.6 328.849 136.667 331.516 141.6C334.316 146.4 335.716 152.533 335.716 160C335.716 165.867 334.716 171.4 332.716 176.6C330.849 181.667 327.982 186.133 324.116 190C320.382 193.733 315.582 196.667 309.716 198.8C303.982 200.933 297.249 202 289.516 202C282.849 202 276.649 201.267 270.916 199.8C265.316 198.333 260.382 196.533 256.116 194.4C251.982 192.133 248.716 189.733 246.316 187.2C243.916 184.533 242.716 182.133 242.716 180C242.716 171.2 243.182 164.867 244.116 161C245.182 157.133 247.049 155.2 249.716 155.2C251.582 155.2 253.516 156 255.516 157.6C257.649 159.2 260.049 161 262.716 163C265.382 165 268.449 166.8 271.916 168.4C275.516 170 279.649 170.8 284.316 170.8C286.182 170.8 287.982 170.667 289.716 170.4C291.582 170 293.182 169.4 294.516 168.6C295.982 167.8 297.116 166.733 297.916 165.4C298.849 164.067 299.316 162.467 299.316 160.6C299.316 157.267 298.049 154.6 295.516 152.6C292.982 150.6 289.782 148.8 285.916 147.2C282.049 145.467 277.849 143.733 273.316 142C268.916 140.133 264.782 137.667 260.916 134.6C257.049 131.4 253.849 127.333 251.316 122.4C248.782 117.467 247.516 111.133 247.516 103.4C247.516 94.7333 249.116 87.4 252.316 81.4C255.649 75.4 259.849 70.5333 264.916 66.8C270.116 62.9333 275.916 60.2 282.316 58.6C288.849 56.8667 295.316 56 301.716 56ZM403.119 202C397.252 202 391.385 201.267 385.519 199.8C379.785 198.333 374.585 195.8 369.919 192.2C365.385 188.6 361.652 183.8 358.719 177.8C355.785 171.8 354.319 164.267 354.319 155.2C354.319 151.867 354.585 147.867 355.119 143.2C355.652 138.533 356.652 133.733 358.119 128.8C359.719 123.867 361.852 119 364.519 114.2C367.319 109.267 370.919 104.867 375.319 101C379.719 97.1333 385.052 94 391.319 91.6C397.585 89.2 405.052 88 413.719 88C420.652 88 426.519 88.8 431.319 90.4C436.119 92 439.985 94.2 442.919 97C445.852 99.6667 447.985 102.8 449.319 106.4C450.652 110 451.319 113.867 451.319 118C451.319 124.133 450.052 129.333 447.519 133.6C445.119 137.867 441.919 141.467 437.919 144.4C434.052 147.2 429.719 149.4 424.919 151C420.119 152.6 415.385 153.867 410.719 154.8C406.052 155.6 401.719 156.133 397.719 156.4C393.852 156.533 390.852 156.6 388.719 156.6C388.719 159.133 389.052 161.667 389.719 164.2C390.519 166.6 391.652 168.733 393.119 170.6C394.585 172.467 396.519 174 398.919 175.2C401.319 176.4 404.252 177 407.719 177C411.185 177 413.852 176.467 415.719 175.4C417.719 174.2 419.319 172.933 420.519 171.6C421.719 170.133 422.719 168.867 423.519 167.8C424.452 166.6 425.652 166 427.119 166C427.785 166 428.919 166.2 430.519 166.6C432.252 166.867 433.985 167.533 435.719 168.6C437.452 169.667 438.985 171.133 440.319 173C441.652 174.867 442.319 177.267 442.319 180.2C442.319 184.067 441.119 187.4 438.719 190.2C436.319 193 433.185 195.267 429.319 197C425.585 198.733 421.385 200 416.719 200.8C412.052 201.6 407.519 202 403.119 202ZM406.919 114.6C403.985 114.6 401.452 115.467 399.319 117.2C397.319 118.8 395.585 120.867 394.119 123.4C392.785 125.933 391.719 128.733 390.919 131.8C390.252 134.867 389.719 137.8 389.319 140.6C397.585 140.467 404.252 139.067 409.319 136.4C414.519 133.733 417.119 129.933 417.119 125C417.119 122.333 416.252 119.933 414.519 117.8C412.919 115.667 410.385 114.6 406.919 114.6ZM531.964 137.8C531.164 137.8 530.231 137.8 529.164 137.8C528.231 137.667 527.297 137.533 526.364 137.4C525.431 137.133 524.631 136.867 523.964 136.6C523.297 136.2 522.964 135.733 522.964 135.2C522.964 133.467 523.031 131.867 523.164 130.4C523.297 128.933 523.364 127.4 523.364 125.8C523.364 122.867 522.964 120.467 522.164 118.6C521.364 116.733 519.764 115.8 517.364 115.8C513.631 115.8 510.497 118.267 507.964 123.2C505.564 128 504.031 135.267 503.364 145C503.097 149.267 502.697 154.133 502.164 159.6C501.764 164.933 501.364 170.133 500.964 175.2C500.564 180.133 500.231 184.533 499.964 188.4C499.697 192.267 499.564 194.8 499.564 196C499.564 197.333 499.097 198.333 498.164 199C497.231 199.667 496.231 200 495.164 200H487.964C483.831 200 480.431 199.6 477.764 198.8C475.231 197.867 473.164 196.6 471.564 195C470.097 193.4 469.031 191.467 468.364 189.2C467.831 186.8 467.564 184.067 467.564 181C467.564 179 467.631 176.2 467.764 172.6C468.031 168.867 468.431 163.8 468.964 157.4C469.497 150.867 470.097 142.667 470.764 132.8C471.564 122.8 472.497 110.467 473.564 95.8C473.831 91.9333 475.231 90 477.764 90H485.564C489.297 90 492.431 90.4 494.964 91.2C497.497 92 499.564 93.1333 501.164 94.6C502.764 95.9333 503.897 97.5333 504.564 99.4C505.364 101.267 505.897 103.2 506.164 105.2C507.764 102.133 509.631 99.5333 511.764 97.4C514.031 95.1333 516.364 93.3333 518.764 92C521.164 90.5333 523.631 89.5333 526.164 89C528.697 88.3333 531.031 88 533.164 88C535.697 88 538.231 88.4667 540.764 89.4C543.431 90.3333 545.831 91.7333 547.964 93.6C550.097 95.4667 551.764 97.8667 552.964 100.8C554.297 103.733 554.964 107.2 554.964 111.2C554.964 114.8 554.431 118.2 553.364 121.4C552.297 124.6 550.764 127.467 548.764 130C546.764 132.4 544.297 134.333 541.364 135.8C538.564 137.133 535.431 137.8 531.964 137.8ZM750.267 202C744.401 202 738.534 201.267 732.667 199.8C726.934 198.333 721.734 195.8 717.067 192.2C712.534 188.6 708.801 183.8 705.867 177.8C702.934 171.8 701.467 164.267 701.467 155.2C701.467 151.867 701.734 147.867 702.267 143.2C702.801 138.533 703.801 133.733 705.267 128.8C706.867 123.867 709.001 119 711.667 114.2C714.467 109.267 718.067 104.867 722.467 101C726.867 97.1333 732.201 94 738.467 91.6C744.734 89.2 752.201 88 760.867 88C767.801 88 773.667 88.8 778.467 90.4C783.267 92 787.134 94.2 790.067 97C793.001 99.6667 795.134 102.8 796.467 106.4C797.801 110 798.467 113.867 798.467 118C798.467 124.133 797.201 129.333 794.667 133.6C792.267 137.867 789.067 141.467 785.067 144.4C781.201 147.2 776.867 149.4 772.067 151C767.267 152.6 762.534 153.867 757.867 154.8C753.201 155.6 748.867 156.133 744.867 156.4C741.001 156.533 738.001 156.6 735.867 156.6C735.867 159.133 736.201 161.667 736.867 164.2C737.667 166.6 738.801 168.733 740.267 170.6C741.734 172.467 743.667 174 746.067 175.2C748.467 176.4 751.401 177 754.867 177C758.334 177 761.001 176.467 762.867 175.4C764.867 174.2 766.467 172.933 767.667 171.6C768.867 170.133 769.867 168.867 770.667 167.8C771.601 166.6 772.801 166 774.267 166C774.934 166 776.067 166.2 777.667 166.6C779.401 166.867 781.134 167.533 782.867 168.6C784.601 169.667 786.134 171.133 787.467 173C788.801 174.867 789.467 177.267 789.467 180.2C789.467 184.067 788.267 187.4 785.867 190.2C783.467 193 780.334 195.267 776.467 197C772.734 198.733 768.534 200 763.867 200.8C759.201 201.6 754.667 202 750.267 202ZM754.067 114.6C751.134 114.6 748.601 115.467 746.467 117.2C744.467 118.8 742.734 120.867 741.267 123.4C739.934 125.933 738.867 128.733 738.067 131.8C737.401 134.867 736.867 137.8 736.467 140.6C744.734 140.467 751.401 139.067 756.467 136.4C761.667 133.733 764.267 129.933 764.267 125C764.267 122.333 763.401 119.933 761.667 117.8C760.067 115.667 757.534 114.6 754.067 114.6Z" fill="#EC7210"/>
<path fill-rule="evenodd" clip-rule="evenodd" d="M573 83H688.846V100.284L677.308 109.591V94.0795H578.538V188.92H677.308V136.182L688.846 122V200C648.231 200 607.615 200 567 200V83H573ZM684.692 107.375C668.077 120.67 655.154 133.08 640.385 150.364L617.769 119.341C602.077 118.011 592.385 122.886 589.154 137.068L640.846 176.068L717 83.4432C705.923 90.9773 694.846 98.9545 684.692 107.375Z" fill="#EC7210"/>
</svg>
